<svg width="63" height="66" viewBox="0 0 63 66" fill="none" xmlns="http://www.w3.org/2000/svg">
<path fill-rule="evenodd" clip-rule="evenodd" d="M10.6792 64.4355C11.0117 64.7595 11.7907 65.3214 12.394 65.286C12.774 65.2759 13.211 64.9924 13.648 64.4558C15.0777 62.6788 16.6642 61.7321 18.36 61.6309C20.9297 61.4739 22.8677 63.3623 23.8035 64.2684C25.086 65.4936 25.6322 65.5999 25.808 65.5746C26.0312 65.5543 27.8315 63.4534 28.7767 62.8155V30.6737L14.6502 33.9846V18.0124C14.6502 16.2759 16.023 14.8736 17.7045 14.8736H29.095V30.7699C30.3442 30.4763 32.3915 30.4763 33.6502 30.7699V14.8736H45.0835C46.765 14.8736 48.133 16.2759 48.133 18.0124L48.2042 34.1213L33.9542 30.6737V61.8941C34.32 61.7929 34.7142 61.7271 35.1417 61.7169C36.41 61.7068 38.3147 62.0916 40.1625 64.2229C40.7847 64.9215 41.4355 65.3113 41.7775 65.3063C42.205 65.2809 43.0742 64.2533 43.1407 64.1824C43.364 63.9444 45.397 61.8486 48.1425 61.9194C49.3015 61.9549 51.0115 62.3801 52.5505 64.2684C53.2107 65.0734 53.8377 65.5543 54.2937 65.5847C55.0442 65.6454 56.1605 64.5519 56.6307 64.0913C57.6995 63.0686 59.0865 61.9599 60.787 61.7018C60.787 61.7018 63.4945 49.3138 61.4377 43.8261C60.3452 40.9101 60.084 38.3687 54.2747 36.2273C53.7475 36.0349 53.1965 35.8982 52.6645 35.7058V17.1518C52.6645 13.3296 49.6435 10.2262 45.9242 10.2262H38.405V0.106312H33.7595V10.2262H28.905V0.212624H24.2595V10.2262H16.9112C13.192 10.2262 10.1615 13.3296 10.1615 17.1518V35.721C9.64372 35.8982 9.11172 36.0349 8.60347 36.2273C2.82747 38.3687 2.72772 41.0873 1.45472 43.9223C-0.986776 49.3644 2.80847 63.1091 2.80847 63.1091C4.22872 62.0409 5.53497 61.8435 6.47547 61.9093C8.78397 62.0764 10.2232 63.8128 10.6792 64.4355Z" fill="#E33741"/>
</svg>
