<svg width="72" height="11" viewBox="0 0 72 11" fill="none" xmlns="http://www.w3.org/2000/svg">
<path fill-rule="evenodd" clip-rule="evenodd" d="M71.6105 4.65668C70.3375 2.42918 68.8555 1.199 67.2072 1.01169C66.8055 0.976123 66.401 0.999974 66.0054 1.08256C64.2622 1.40656 62.8372 2.82406 61.74 4.115C61.2555 4.69212 60.125 6.09443 59.346 6.01343C58.89 5.97799 58.2345 5.36543 57.5647 4.34281C55.983 1.94825 54.235 1.4015 53.0475 1.361C50.226 1.28 48.1597 3.92768 47.927 4.23649C47.8518 4.33345 47.7865 4.43867 47.7322 4.55037C47.528 4.91993 46.9675 5.62362 46.5162 5.65905C46.1695 5.66918 45.5045 5.16293 44.8822 4.27699C42.9822 1.58375 41.0299 1.09268 39.7427 1.10787C39.3245 1.1293 38.9101 1.20236 38.5077 1.32556C37.686 1.57868 36.9877 2.02418 36.4035 2.50512C35.4249 3.31512 34.8312 4.20612 34.7172 4.38331C34.6317 4.49974 34.57 4.64149 34.5035 4.78831C33.9857 5.64387 33.5677 5.98306 33.3492 6.00837C33.1402 6.03874 32.594 5.90712 31.2735 4.34787C30.3045 3.20374 28.3047 0.799058 25.6399 0.991433C23.9015 1.12812 22.2627 2.333 20.7807 4.57568C20.3247 5.26418 19.883 5.62362 19.4935 5.64387C18.8665 5.67425 18.0732 4.9655 17.7264 4.55543C17.2657 3.76568 15.7647 1.5635 13.3897 1.35594C12.416 1.25975 11.067 1.51287 9.6087 2.86962C9.08113 3.36388 8.60497 3.91718 8.18845 4.52C7.7372 5.15281 7.02945 5.87674 6.41195 5.89193C5.65195 5.88181 4.84445 4.93512 4.6307 4.59593C3.9182 3.50243 2.6072 3.27968 1.68095 4.10993C1.23177 4.54192 0.94194 5.13054 0.863575 5.76993C0.785211 6.40932 0.923457 7.05753 1.25345 7.59799C1.4577 7.93212 3.3577 10.7924 6.28845 10.8785C7.58995 10.919 9.53745 10.3925 11.428 7.7043C11.4707 7.64355 11.5087 7.60305 11.542 7.54737C12.1357 6.76268 12.72 6.30199 13.0715 6.32224C13.5085 6.35262 14.0785 7.06137 14.2637 7.40055C14.3227 7.52345 14.3944 7.63893 14.4775 7.74481C14.7055 8.05362 16.7765 10.7924 19.598 10.6203C20.7807 10.5849 22.524 10.028 24.101 7.63849C24.7897 6.61587 25.431 6.00331 25.9012 5.97293C26.666 5.94762 27.7964 7.27906 28.2952 7.86124C29.5397 9.33949 31.207 10.9848 33.297 10.9848C33.4442 10.9848 33.601 10.9797 33.753 10.9646C34.6982 10.8582 35.5817 10.3722 36.4082 9.59262C37.0305 9.00537 37.6147 8.2713 38.1515 7.31955C38.1847 7.27399 38.2037 7.22337 38.2275 7.1778C38.3082 7.08162 38.4032 6.96518 38.5172 6.85887C38.8687 6.49437 39.3817 6.09949 39.871 6.08937H39.8852C40.5407 6.08937 41.1962 6.83862 41.6427 7.46637C43.633 10.2811 45.5472 10.7367 46.8487 10.6254C49.2237 10.4178 50.7247 8.22068 51.1902 7.42081C51.4515 7.11199 52.2922 6.2463 52.943 6.34249C53.3467 6.34755 53.7789 6.71205 54.2397 7.40055C55.7217 9.64324 57.3652 10.8582 59.099 10.9797C60.3245 11.081 61.4217 10.5899 62.348 9.9318C63.3882 9.19774 64.2242 8.24599 64.742 7.63849C66.0482 6.07418 66.623 5.9375 66.8035 5.97799C67.0505 6.00331 67.516 6.39818 68.1097 7.43093C68.7605 8.58012 70.0762 8.88387 71.0405 8.11437C71.511 7.70841 71.8279 7.13475 71.9327 6.49924C72.0375 5.86373 71.923 5.20928 71.6105 4.65668Z" fill="#E33741"/>
</svg>
